# xmcd
#
# Track frame offsets:
#	150
#	16595
#	29060
#	48427
#	62565
#	81302
#	97590
#	113147
#	127610
#	143330
#	157585
#	172665
#	191097
#	217002
#
# Disc length: 3630 seconds
#
# Revision: 6
# Processed by: cddbd v1.5.2PL0 Copyright (c) Steve Scherf et al.
# Submitted via: EasyCDDAExtractor 12.0.1.1
#
DISCID=9f0e2c0e
DTITLE=Prong - Rude Awakening
DYEAR=1996
DGENRE=Heavy Metal
TTITLE0=Controller
TTITLE1=Caprice
TTITLE2=Rude Awakening
TTITLE3=Unfortunately
TTITLE4=Face Value
TTITLE5=Avenue of the Finest
TTITLE6=Slicing
TTITLE7=Without Hope
TTITLE8=Mansruin
TTITLE9=Innocence Gone
TTITLE10=Dark Signs
TTITLE11=Close the Door
TTITLE12=Proud Division
TTITLE13=[DATA]
EXTD=YEAR: 1996
EXTT0=
EXTT1=
EXTT2=
EXTT3=
EXTT4=
EXTT5=
EXTT6=
EXTT7=
EXTT8=
EXTT9=
EXTT10=
EXTT11=
EXTT12=
EXTT13=
PLAYORDER=
